opsz8_wght1000.ufo
<glyph name="A" format="2">
	<unicode hex="0041"/>
	<advance width="1465"/>
	<outline>
		<contour>
			<point x="-34.5288085938" y="0" type="line"/>
			<point x="-34.5288085938" y="97.9951171875" type="line"/>
			<point x="150.5856933594" y="131.9951171875" type="line"/>
			<point x="362.3166503906" y="698.9869995117" type="line"/>
			<point x="684.6264648438" y="1487.5610351562" type="line"/>
			<point x="787.5495605469" y="1487.5610351562" type="line"/>
			<point x="1119.7177124023" y="655.0180664062" type="line"/>
			<point x="1320.8508911133" y="131.9951171875" type="line"/>
			<point x="1491.5231323242" y="97.9951171875" type="line"/>
			<point x="1491.5231323242" y="0" type="line"/>
			<point x="946.8275756836" y="0" type="line"/>
			<point x="946.8275756836" y="97.9951171875" type="line"/>
			<point x="1119.6440429688" y="131.9951171875" type="line"/>
			<point x="935.3651733398" y="645" type="line"/>
			<point x="779" y="1132" type="line"/>
			<point x="742" y="1246" type="line"/>
			<point x="732" y="1246" type="line"/>
			<point x="695" y="1132" type="line"/>
			<point x="522.5682983398" y="719.9636230469" type="line"/>
			<point x="317.2315673828" y="131.9951171875" type="line"/>
			<point x="506.7595825195" y="97.9951171875" type="line"/>
			<point x="506.7595825195" y="0" type="line"/>
		</contour>
		<contour>
			<point x="547.6185302734" y="604.2023925781" type="line"/>
			<point x="724.0221557617" y="584.1011962891" type="line"/>
			<point x="724.2033081055" y="453.6335449219" type="line"/>
			<point x="547.6185302734" y="459.2670898438" type="line"/>
		</contour>
		<contour>
			<point x="305.0874633789" y="453.6335449219" type="line"/>
			<point x="322.2532958984" y="583.1011962891" type="line"/>
			<point x="547.6185302734" y="604.2023925781" type="line"/>
			<point x="547.6185302734" y="459.2670898438" type="line"/>
		</contour>
	</outline>
	<anchor name="bottom" x="735" y="0"/>
	<anchor name="ogonek" x="1318" y="0"/>
	<anchor name="tonos" x="492" y="1500"/>
	<anchor name="top" x="753" y="1500"/>
</glyph>
<glyph name="C" format="2">
	<unicode hex="0043"/>
	<advance width="1539"/>
	<outline>
		<contour>
			<point x="81.0009765625" y="697" type="qcurve" smooth="yes"/>
			<point x="81.0009765625" y="1083.4692382812"/>
			<point x="467.7149658203" y="1512.5366210938"/>
			<point x="775.4667358398" y="1512.5366210938" type="qcurve" smooth="yes"/>
			<point x="914.7455444336" y="1512.5366210938"/>
			<point x="1211.8389282227" y="1472.2780761719"/>
			<point x="1289.2634887695" y="1428" type="qcurve"/>
			<point x="1325.8414916992" y="1501" type="line"/>
			<point x="1438.8767089844" y="1501" type="line"/>
			<point x="1438.8767089844" y="1027.2810058594" type="line"/>
			<point x="1306.9266967773" y="1027.2810058594" type="line"/>
			<point x="1261.5695800781" y="1205.9689941406" type="line" smooth="yes"/>
			<point x="1242.2110595703" y="1281.0823364258"/>
			<point x="1018.4391479492" y="1382.9832763672"/>
			<point x="813.2687988281" y="1382.9832763672" type="qcurve" smooth="yes"/>
			<point x="564.6600341797" y="1382.9832763672"/>
			<point x="267.29296875" y="1052.0434570312"/>
			<point x="267.29296875" y="743" type="qcurve" smooth="yes"/>
			<point x="267.29296875" y="428.2998046875"/>
			<point x="592.5982666016" y="146.6776123047"/>
			<point x="835.1724853516" y="146.6776123047" type="qcurve" smooth="yes"/>
			<point x="1035.9409179688" y="146.6776123047"/>
			<point x="1351.2932128906" y="263.6128540039"/>
			<point x="1415.7211303711" y="329.4257202148" type="qcurve"/>
			<point x="1525.8350830078" y="251" type="line"/>
			<point x="1417.5364379883" y="123.4829101562"/>
			<point x="1023.0758666992" y="-19.5366210938"/>
			<point x="825.4220581055" y="-19.5366210938" type="qcurve" smooth="yes"/>
			<point x="532.6145019531" y="-19.5366210938"/>
			<point x="81.0009765625" y="391.3101806641"/>
		</contour>
	</outline>
	<anchor name="bottom" x="836" y="0"/>
	<anchor name="top" x="836" y="1500"/>
</glyph>
<glyph name="D" format="2">
	<unicode hex="0044"/>
	<advance width="1569"/>
	<outline>
		<contour>
			<point x="82.0052490234" y="0" type="line"/>
			<point x="82.0052490234" y="99.9951171875" type="line"/>
			<point x="290.0042724609" y="134.9951171875" type="line"/>
			<point x="292.0042724609" y="754" type="line"/>
			<point x="290.0042724609" y="1352.0048828125" type="line"/>
			<point x="82.0052490234" y="1386.0048828125" type="line"/>
			<point x="82.0052490234" y="1500" type="line"/>
			<point x="745.2253417969" y="1500" type="line" smooth="yes"/>
			<point x="1102.5687255859" y="1502"/>
			<point x="1484.614074707" y="1119"/>
			<point x="1484.614074707" y="778" type="qcurve" smooth="yes"/>
			<point x="1484.614074707" y="410"/>
			<point x="1096.2585449219" y="0"/>
			<point x="700.8472900391" y="0" type="qcurve" smooth="yes"/>
		</contour>
		<contour>
			<point x="469.1779785156" y="128.6937255859" type="line"/>
			<point x="502.932800293" y="122.6937255859"/>
			<point x="654.4967041016" y="109.6937255859"/>
			<point x="728.7953491211" y="109.6937255859" type="qcurve" smooth="yes"/>
			<point x="1018.1580810547" y="109.6937255859"/>
			<point x="1285.4898071289" y="475.3115234375"/>
			<point x="1289.231262207" y="752" type="qcurve" smooth="yes"/>
			<point x="1291.6666259766" y="1004.7788085938"/>
			<point x="981.0646972656" y="1361.6162109375"/>
			<point x="692.2990722656" y="1361.6162109375" type="qcurve" smooth="yes"/>
			<point x="644.0137939453" y="1361.6162109375"/>
			<point x="506.6742553711" y="1348.6162109375"/>
			<point x="470.1779785156" y="1343.6162109375" type="qcurve"/>
			<point x="467.1779785156" y="747" type="line"/>
		</contour>
	</outline>
	<anchor name="bottom" x="686" y="0"/>
	<anchor name="center" x="438" y="754"/>
	<anchor name="top" x="686" y="1500"/>
	<anchor name="liga" x="1590" y="0"/>
</glyph>
<glyph name="E" format="2">
	<unicode hex="0045"/>
	<advance width="1247"/>
	<outline>
		<contour>
			<point x="82.0052490234" y="0" type="line"/>
			<point x="82.0052490234" y="99.9951171875" type="line"/>
			<point x="290.0042724609" y="134.9951171875" type="line"/>
			<point x="292.0042724609" y="754" type="line"/>
			<point x="290.0042724609" y="1352.0048828125" type="line"/>
			<point x="82.0052490234" y="1386.0048828125" type="line"/>
			<point x="82.0052490234" y="1500" type="line"/>
			<point x="1118.2631225586" y="1500" type="line"/>
			<point x="1118.5447998047" y="1144.1856079102" type="line"/>
			<point x="1005.5402832031" y="1144.1856079102" type="line"/>
			<point x="970.5402832031" y="1371.1513061523" type="line"/>
			<point x="500" y="1382" type="line"/>
			<point x="470" y="1362" type="line"/>
			<point x="468" y="783" type="line"/>
			<point x="470" y="128" type="line"/>
			<point x="500" y="108" type="line"/>
			<point x="1038.0897216797" y="117.2999267578" type="line"/>
			<point x="1110.0897216797" y="393.4770507812" type="line"/>
			<point x="1222.0942382812" y="393.4770507812" type="line"/>
			<point x="1183.8125610352" y="0" type="line"/>
		</contour>
		<contour>
			<point x="196.3507080078" y="739.1950683594" type="line"/>
			<point x="196.3507080078" y="836.1285400391" type="line"/>
			<point x="849.9249267578" y="846.1285400391" type="line"/>
			<point x="876.9249267578" y="1023.9742431641" type="line"/>
			<point x="987.1285400391" y="1023.9742431641" type="line"/>
			<point x="987.1285400391" y="548.3493652344" type="line"/>
			<point x="876.9249267578" y="548.3493652344" type="line"/>
			<point x="849.9249267578" y="729.1950683594" type="line"/>
		</contour>
	</outline>
	<anchor name="bottom" x="681" y="0"/>
	<anchor name="ogonek" x="1000" y="0"/>
	<anchor name="top" x="654" y="1500"/>
	<anchor name="tonos" x="0" y="1500"/>
</glyph>
<glyph name="J" format="2">
	<unicode hex="004A"/>
	<advance width="751"/>
	<outline>
		<contour>
			<point x="-10.198425293" y="-194.9956054688" type="qcurve"/>
			<point x="-10.198425293" y="-66.1997070312" type="line"/>
			<point x="9.5455932617" y="-66.5997314453"/>
			<point x="37.8322753906" y="-65.7998046875"/>
			<point x="79.2349853516" y="-63.9998779297" type="qcurve" smooth="yes"/>
			<point x="194.5830688477" y="-58.4000244141"/>
			<point x="284.1018066406" y="46.0001220703"/>
			<point x="283.1018066406" y="189.0001220703" type="qcurve" smooth="yes"/>
			<point x="285.1018066406" y="674" type="line"/>
			<point x="283.1018066406" y="1352.0048828125" type="line"/>
			<point x="30.8239135742" y="1386.0048828125" type="line"/>
			<point x="30.8239135742" y="1500" type="line"/>
			<point x="675.2966308594" y="1500" type="line"/>
			<point x="675.2966308594" y="1391.7021484375" type="line"/>
			<point x="470.8936767578" y="1357.7021484375" type="line"/>
			<point x="469.8936767578" y="674" type="line"/>
			<point x="465.8936767578" y="259.0031738281" type="line" smooth="yes"/>
			<point x="465.6036987305" y="34.203125"/>
			<point x="264.4291381836" y="-207.9956054688"/>
			<point x="99.4457397461" y="-207.9956054688" type="qcurve" smooth="yes"/>
			<point x="104.1365966797" y="-206.9956054688"/>
			<point x="35.0882568359" y="-203.9956054688"/>
		</contour>
	</outline>
	<anchor name="bottom" x="376" y="-208"/>
	<anchor name="top" x="376" y="1500"/>
	<anchor name="_liga" x="0" y="0"/>
</glyph>
<glyph name="K" format="2">
	<unicode hex="004B"/>
	<advance width="1425"/>
	<outline>
		<contour>
			<point x="82.0052490234" y="0" type="line"/>
			<point x="82.0052490234" y="99.9951171875" type="line"/>
			<point x="290.0042724609" y="134.9951171875" type="line"/>
			<point x="292.0042724609" y="754" type="line"/>
			<point x="290.0042724609" y="1352.0048828125" type="line"/>
			<point x="82.0052490234" y="1386.0048828125" type="line"/>
			<point x="82.0052490234" y="1500" type="line"/>
			<point x="684.7347412109" y="1500" type="line"/>
			<point x="684.7347412109" y="1386.0048828125" type="line"/>
			<point x="470.1779785156" y="1352.0048828125" type="line"/>
			<point x="468.1779785156" y="754" type="line"/>
			<point x="470.1779785156" y="134.9951171875" type="line"/>
			<point x="656.1770019531" y="99.9951171875" type="line"/>
			<point x="656.1770019531" y="0" type="line"/>
		</contour>
		<contour>
			<point x="377.6624755859" y="496.7616577148" type="line"/>
			<point x="377.6624755859" y="634.7214355469" type="line"/>
			<point x="1040.5980834961" y="1364.0048828125" type="line"/>
			<point x="883.3968505859" y="1387.0048828125" type="line"/>
			<point x="883.3968505859" y="1500" type="line"/>
			<point x="1431.9923095703" y="1500" type="line"/>
			<point x="1431.9923095703" y="1387.0048828125" type="line"/>
			<point x="1208.3200683594" y="1354.0048828125" type="line"/>
			<point x="759.9771728516" y="895.0037231445" type="line"/>
			<point x="714.4621582031" y="845.6766967773" type="line"/>
		</contour>
		<contour>
			<point x="626.7541503906" y="818.1090087891" type="line"/>
			<point x="730.1820678711" y="941.6872558594" type="line"/>
			<point x="1316.690612793" y="134.9951171875" type="line"/>
			<point x="1484.3341064453" y="99.9951171875" type="line"/>
			<point x="1484.3341064453" y="0" type="line"/>
			<point x="975.6232299805" y="0" type="line"/>
			<point x="975.6232299805" y="99.9951171875" type="line"/>
			<point x="1108.8532104492" y="134.9951171875" type="line"/>
		</contour>
	</outline>
	<anchor name="bottom" x="812" y="0"/>
	<anchor name="top" x="770" y="1500"/>
</glyph>
<glyph name="L" format="2">
	<unicode hex="004C"/>
	<advance width="1292"/>
	<outline>
		<contour>
			<point x="124.0052490234" y="0" type="line"/>
			<point x="124.0052490234" y="99.9951171875" type="line"/>
			<point x="290.0042724609" y="134.9951171875" type="line"/>
			<point x="292.0042724609" y="754" type="line"/>
			<point x="290.0042724609" y="1352.0048828125" type="line"/>
			<point x="82.0052490234" y="1386.0048828125" type="line"/>
			<point x="82.0052490234" y="1500" type="line"/>
			<point x="695.4942016602" y="1500" type="line"/>
			<point x="695.4942016602" y="1386.0048828125" type="line"/>
			<point x="471.1779785156" y="1352.0048828125" type="line"/>
			<point x="470.1779785156" y="754" type="line"/>
			<point x="472.1779785156" y="136.0601806641" type="line"/>
			<point x="504.1779785156" y="109.0601806641" type="line"/>
			<point x="1062.630859375" y="109.0601806641" type="line"/>
			<point x="1142.630859375" y="437.4487304688" type="line"/>
			<point x="1263.5150146484" y="437.4487304688" type="line"/>
			<point x="1223.5150146484" y="0" type="line"/>
		</contour>
	</outline>
	<anchor name="bottom" x="705" y="0"/>
	<anchor name="centerright" x="928" y="750"/>
	<anchor name="top" x="632" y="1500"/>
	<anchor name="topright" x="784" y="1001"/>
	<anchor name="center" x="378" y="750"/>
	<anchor name="liga" x="1264" y="0"/>
</glyph>
<glyph name="M" format="2">
	<unicode hex="004D"/>
	<advance width="2134"/>
	<outline>
		<contour>
			<point x="91.0052490234" y="0" type="line"/>
			<point x="91.0052490234" y="99.9951171875" type="line"/>
			<point x="287.0042724609" y="134.9951171875" type="line"/>
			<point x="289.0042724609" y="754" type="line"/>
			<point x="287.0042724609" y="1353.0048828125" type="line"/>
			<point x="91.0052490234" y="1387.0048828125" type="line"/>
			<point x="91.0052490234" y="1500" type="line"/>
			<point x="512.5539550781" y="1502.4605102539" type="line"/>
			<point x="803.0413818359" y="852.9811401367" type="line"/>
			<point x="1016.3297119141" y="321.3640136719" type="line"/>
			<point x="1048.026184082" y="223.1699829102" type="line"/>
			<point x="1060.026184082" y="223.1699829102" type="line"/>
			<point x="1092.3711547852" y="321.3640136719" type="line"/>
			<point x="1322.4756469727" y="919.8582763672" type="line"/>
			<point x="1578.9256591797" y="1500" type="line"/>
			<point x="2052.075378418" y="1500" type="line"/>
			<point x="2052.075378418" y="1387.0048828125" type="line"/>
			<point x="1855.0763549805" y="1353.0048828125" type="line"/>
			<point x="1852.7248535156" y="754" type="line"/>
			<point x="1855.0763549805" y="134.9951171875" type="line"/>
			<point x="2052.075378418" y="99.9951171875" type="line"/>
			<point x="2052.075378418" y="0" type="line"/>
			<point x="1471.8223266602" y="0" type="line"/>
			<point x="1472.8768310547" y="99.9951171875" type="line"/>
			<point x="1662.1481323242" y="134.9951171875" type="line"/>
			<point x="1665.1481323242" y="752" type="line"/>
			<point x="1662.0214233398" y="1206.9252929688" type="line"/>
			<point x="1668.4274291992" y="1351.9252929688" type="line"/>
			<point x="1656.4274291992" y="1355.6282958984" type="line"/>
			<point x="1611.1248779297" y="1210.0888061523" type="line"/>
			<point x="1402.7805175781" y="747.6729736328" type="line"/>
			<point x="1089.9124755859" y="-5" type="line"/>
			<point x="964.5062866211" y="-5" type="line"/>
			<point x="646.2767944336" y="712.7484130859" type="line"/>
			<point x="416.5493164062" y="1213.7482299805" type="line"/>
			<point x="382.9674682617" y="1317.8510742188" type="line"/>
			<point x="370.9674682617" y="1314.1480712891" type="line"/>
			<point x="380.7249755859" y="1211.1480712891" type="line"/>
			<point x="384.5284423828" y="754" type="line"/>
			<point x="386.5284423828" y="134.9951171875" type="line"/>
			<point x="560.9697265625" y="99.9951171875" type="line"/>
			<point x="560.9697265625" y="0" type="line"/>
		</contour>
	</outline>
	<anchor name="bottom" x="1025" y="0"/>
	<anchor name="top" x="1058" y="1500"/>
</glyph>
<glyph name="N" format="2">
	<unicode hex="004E"/>
	<advance width="1577"/>
	<outline>
		<contour>
			<point x="82.0052490234" y="0" type="line"/>
			<point x="82.0052490234" y="99.9951171875" type="line"/>
			<point x="273.0042724609" y="134.9951171875" type="line"/>
			<point x="275.0042724609" y="754" type="line"/>
			<point x="273.0042724609" y="1353.0048828125" type="line"/>
			<point x="82.0052490234" y="1387.0048828125" type="line"/>
			<point x="82.0052490234" y="1500" type="line"/>
			<point x="457.2416992188" y="1500" type="line"/>
			<point x="930.990234375" y="749.3897705078" type="line"/>
			<point x="1148" y="412" type="line"/>
			<point x="1206" y="310" type="line"/>
			<point x="1215" y="313" type="line"/>
			<point x="1211" y="434" type="line"/>
			<point x="1175.7308349609" y="753.3637695312" type="line"/>
			<point x="1174.4338378906" y="1353.0048828125" type="line"/>
			<point x="996.5502929688" y="1387.0048828125" type="line"/>
			<point x="996.5502929688" y="1500" type="line"/>
			<point x="1495.5769042969" y="1500" type="line"/>
			<point x="1495.5769042969" y="1387.0048828125" type="line"/>
			<point x="1307.5778808594" y="1353.0048828125" type="line"/>
			<point x="1305.5778808594" y="729.3637695312" type="line"/>
			<point x="1301.5778808594" y="0" type="line"/>
			<point x="1180.1295776367" y="0" type="line"/>
			<point x="790.3065795898" y="626.397277832" type="line"/>
			<point x="472" y="1219" type="line"/>
			<point x="414" y="1321" type="line"/>
			<point x="405" y="1318" type="line"/>
			<point x="410" y="1198" type="line"/>
			<point x="406.9650878906" y="783.7270507812" type="line"/>
			<point x="408.9650878906" y="134.9951171875" type="line"/>
			<point x="583.4063720703" y="99.9951171875" type="line"/>
			<point x="583.4063720703" y="0" type="line"/>
		</contour>
	</outline>
	<anchor name="bottom" x="800" y="0"/>
	<anchor name="top" x="800" y="1500"/>
	<anchor name="engtail" x="1324" y="0"/>
	<anchor name="liga" x="1600" y="0"/>
</glyph>
<glyph name="O" format="2">
	<unicode hex="004F"/>
	<advance width="1662"/>
	<outline>
		<contour>
			<point x="81.0009765625" y="743" type="qcurve" smooth="yes"/>
			<point x="81.0009765625" y="1070.7658691406"/>
			<point x="490.4963378906" y="1519.5366210938"/>
			<point x="832.1516723633" y="1519.5366210938" type="qcurve" smooth="yes"/>
			<point x="1173.5009155273" y="1519.5366210938"/>
			<point x="1581.1255493164" y="1099.7658691406"/>
			<point x="1581.1255493164" y="758" type="qcurve" smooth="yes"/>
			<point x="1581.1255493164" y="432.2341308594"/>
			<point x="1177.2817382812" y="-17.5366210938"/>
			<point x="836.2809448242" y="-17.5366210938" type="qcurve" smooth="yes"/>
			<point x="490.0115356445" y="-17.5366210938"/>
			<point x="81.0009765625" y="405.2341308594"/>
		</contour>
		<contour>
			<point x="270.29296875" y="777" type="qcurve" smooth="yes"/>
			<point x="270.29296875" y="468.6123046875"/>
			<point x="585.7772216797" y="124.9738769531"/>
			<point x="833.2809448242" y="124.9738769531" type="qcurve" smooth="yes"/>
			<point x="1104.2753295898" y="124.9738769531"/>
			<point x="1392.8335571289" y="429.63671875"/>
			<point x="1392.8335571289" y="755" type="qcurve" smooth="yes"/>
			<point x="1392.8335571289" y="1046.640625"/>
			<point x="1081.1530151367" y="1373.6177368164"/>
			<point x="831.2809448242" y="1373.6177368164" type="qcurve" smooth="yes"/>
			<point x="560.2865600586" y="1373.6177368164"/>
			<point x="270.29296875" y="1059.001953125"/>
		</contour>
	</outline>
	<anchor name="bottom" x="832" y="0"/>
	<anchor name="center" x="832" y="750"/>
	<anchor name="ogonek" x="1064" y="0"/>
	<anchor name="top" x="832" y="1500"/>
	<anchor name="topright" x="1028" y="1500"/>
	<anchor name="tonos" x="140" y="1500"/>
	<anchor name="_yu_dash" x="169" y="755"/>
</glyph>
<glyph name="Q" format="2">
	<unicode hex="0051"/>
	<advance width="1660"/>
	<outline>
		<contour>
			<point x="81.0009765625" y="745.1768188477" type="qcurve" smooth="yes"/>
			<point x="81.0009765625" y="1071.3975830078"/>
			<point x="516.3511352539" y="1522.0244140625"/>
			<point x="829.1041259766" y="1522.0244140625" type="qcurve" smooth="yes"/>
			<point x="1164.5793457031" y="1522.0244140625"/>
			<point x="1579.3840942383" y="1101.2683105469"/>
			<point x="1579.3840942383" y="758" type="qcurve" smooth="yes"/>
			<point x="1579.3840942383" y="431.7316894531"/>
			<point x="1133.6185913086" y="-9.2878417969"/>
			<point x="825.8314208984" y="-9.2878417969" type="qcurve" smooth="yes"/>
			<point x="499.0044555664" y="-9.2878417969"/>
			<point x="81.0009765625" y="417.6633300781"/>
		</contour>
		<contour>
			<point x="267.29296875" y="777.8231811523" type="qcurve" smooth="yes"/>
			<point x="267.29296875" y="490.6947631836"/>
			<point x="575.3847045898" y="117.9701538086"/>
			<point x="826.4495849609" y="117.9701538086" type="qcurve" smooth="yes"/>
			<point x="1095.6195068359" y="117.9701538086"/>
			<point x="1388.0921020508" y="456.2211914062"/>
			<point x="1388.0921020508" y="758" type="qcurve" smooth="yes"/>
			<point x="1388.0921020508" y="1048.1284179688"/>
			<point x="1084.7141723633" y="1376.1055297852"/>
			<point x="830.2809448242" y="1376.1055297852" type="qcurve" smooth="yes"/>
			<point x="559.2865600586" y="1376.1055297852"/>
			<point x="267.29296875" y="1076.2587280273"/>
		</contour>
		<contour>
			<point x="573" y="-39" type="qcurve"/>
			<point x="1290" y="-274" type="line"/>
			<point x="1350" y="-274"/>
			<point x="1442" y="-186"/>
			<point x="1475" y="-132" type="qcurve"/>
			<point x="1565" y="-184" type="line"/>
			<point x="1515" y="-288"/>
			<point x="1371" y="-429"/>
			<point x="1239" y="-429" type="qcurve"/>
			<point x="540" y="-194" type="line"/>
			<point x="479" y="-194"/>
			<point x="363" y="-236"/>
			<point x="306" y="-288" type="qcurve"/>
			<point x="238" y="-224" type="line"/>
			<point x="299" y="-132"/>
			<point x="476" y="-39"/>
		</contour>
		<contour>
			<point x="500.9266967773" y="-76.3192138672" type="line"/>
			<point x="655.5002441406" y="207.0344238281" type="line"/>
			<point x="744.1458740234" y="101.1403808594" type="line"/>
			<point x="634.4430541992" y="-93.8596191406" type="line"/>
		</contour>
	</outline>
	<anchor name="bottom" x="832" y="0"/>
	<anchor name="top" x="823" y="1502"/>
</glyph>
<glyph name="R" format="2">
	<unicode hex="0052"/>
	<advance width="1405"/>
	<outline>
		<contour>
			<point x="82.3150024414" y="0" type="line"/>
			<point x="82.3150024414" y="99.9951171875" type="line"/>
			<point x="290.3140258789" y="134.9951171875" type="line"/>
			<point x="292.3140258789" y="730.5454101562" type="line"/>
			<point x="290.3140258789" y="1352.0048828125" type="line"/>
			<point x="82.3150024414" y="1386.0048828125" type="line"/>
			<point x="82.3150024414" y="1500" type="line"/>
			<point x="706.3176269531" y="1500" type="line" smooth="yes"/>
			<point x="881.0247802734" y="1500"/>
			<point x="1103.7493896484" y="1302.3928833008"/>
			<point x="1103.7493896484" y="1131.3919677734" type="qcurve" smooth="yes"/>
			<point x="1103.7493896484" y="967.8978881836"/>
			<point x="853.2417602539" y="715.3764648438"/>
			<point x="783.4992675781" y="715.3764648438" type="qcurve" smooth="yes"/>
			<point x="685.561340332" y="715.3764648438"/>
			<point x="417.8253173828" y="723.3764648438"/>
			<point x="353.1552124023" y="729.3764648438" type="qcurve"/>
			<point x="352.1552124023" y="859.0838623047" type="line"/>
			<point x="642.0850219727" y="859.0838623047" type="line" smooth="yes"/>
			<point x="795.2577514648" y="859.0838623047"/>
			<point x="910.4029541016" y="980.412109375"/>
			<point x="910.4029541016" y="1113.8286132812" type="qcurve" smooth="yes"/>
			<point x="910.4029541016" y="1220.8955078125"/>
			<point x="807.6550292969" y="1354.9544067383"/>
			<point x="672.4995727539" y="1354.9544067383" type="qcurve" smooth="yes"/>
			<point x="493.4877319336" y="1354.9544067383" type="line"/>
			<point x="471.4877319336" y="1338.9544067383" type="line"/>
			<point x="469.4877319336" y="692" type="line"/>
			<point x="470.4877319336" y="134.9951171875" type="line"/>
			<point x="681.6405639648" y="99.9951171875" type="line"/>
			<point x="681.6405639648" y="0" type="line"/>
		</contour>
		<contour>
			<point x="614" y="788" type="line"/>
			<point x="802" y="805" type="line"/>
			<point x="1078.6840209961" y="331.9951171875" type="line" smooth="yes"/>
			<point x="1224" y="173"/>
			<point x="1294.8831176758" y="98.2164916992"/>
			<point x="1378.943359375" y="99.9951171875" type="qcurve"/>
			<point x="1378.943359375" y="0" type="line"/>
			<point x="1131.8442382812" y="0" type="line"/>
			<point x="1021.2320556641" y="111" type="line"/>
		</contour>
	</outline>
	<anchor name="bottom" x="803" y="0"/>
	<anchor name="top" x="630" y="1500"/>
</glyph>
<glyph name="S" format="2">
	<unicode hex="0053"/>
	<advance width="1089"/>
	<outline>
		<contour>
			<point x="19.7170410156" y="-1" type="line"/>
			<point x="19.7170410156" y="444.4780883789" type="line"/>
			<point x="138.1158447266" y="444.4780883789" type="line"/>
			<point x="175.7215576172" y="255.2980957031" type="line" smooth="yes"/>
			<point x="226.9752197266" y="228.2736816406"/>
			<point x="449.9973144531" y="120.3914794922"/>
			<point x="581.7139892578" y="120.3914794922" type="qcurve" smooth="yes"/>
			<point x="739.88671875" y="120.3914794922"/>
			<point x="849.0567016602" y="304.708984375"/>
			<point x="849.0567016602" y="383.685546875" type="qcurve" smooth="yes"/>
			<point x="849.0567016602" y="527.5993041992"/>
			<point x="666.6207885742" y="665.0877685547"/>
			<point x="452.5589599609" y="728.274597168" type="qcurve" smooth="yes"/>
			<point x="282.7604370117" y="791.9967041016"/>
			<point x="74.5960693359" y="976.3701171875"/>
			<point x="74.5960693359" y="1144.1734619141" type="qcurve" smooth="yes"/>
			<point x="74.5960693359" y="1306.3363037109"/>
			<point x="305.4142456055" y="1519.5366210938"/>
			<point x="485.9126586914" y="1519.5366210938" type="qcurve" smooth="yes"/>
			<point x="580.1759643555" y="1519.5366210938"/>
			<point x="749.3030395508" y="1472.9575805664"/>
			<point x="795.2470703125" y="1457" type="qcurve"/>
			<point x="819.2470703125" y="1500" type="line"/>
			<point x="902.2515869141" y="1500" type="line"/>
			<point x="902.2515869141" y="1089.1633911133" type="line"/>
			<point x="794.7739257812" y="1089.1633911133" type="line"/>
			<point x="757.2470703125" y="1253.166809082" type="line" smooth="yes"/>
			<point x="701.4860839844" y="1272.1876220703"/>
			<point x="597.3785400391" y="1364.5329589844"/>
			<point x="481.2136230469" y="1364.5329589844" type="qcurve" smooth="yes"/>
			<point x="315.548828125" y="1364.5329589844"/>
			<point x="254.6876220703" y="1208.2147216797"/>
			<point x="254.6876220703" y="1154.5516357422" type="qcurve" smooth="yes"/>
			<point x="254.6876220703" y="1079.5432739258"/>
			<point x="387.5250854492" y="950.0044555664"/>
			<point x="605.1830444336" y="873.1416625977" type="qcurve" smooth="yes"/>
			<point x="788.7338867188" y="798.490234375"/>
			<point x="1038.8119506836" y="595.0307617188"/>
			<point x="1038.8119506836" y="410.8455810547" type="qcurve" smooth="yes"/>
			<point x="1038.8119506836" y="245.6545410156"/>
			<point x="784.2064819336" y="-14.048828125"/>
			<point x="591.9030151367" y="-14.048828125" type="qcurve" smooth="yes"/>
			<point x="458.6029663086" y="-14.048828125"/>
			<point x="207.1109008789" y="22.2721557617"/>
			<point x="155.7215576172" y="66" type="qcurve"/>
			<point x="118.9518432617" y="-1" type="line"/>
		</contour>
	</outline>
	<anchor name="bottom" x="599" y="0"/>
	<anchor name="top" x="514" y="1500"/>
</glyph>
<glyph name="T" format="2">
	<unicode hex="0054"/>
	<advance width="1346"/>
	<outline>
		<contour>
			<point x="40" y="1049" type="line"/>
			<point x="40" y="1500" type="line"/>
			<point x="1306" y="1500" type="line"/>
			<point x="1306" y="1052" type="line"/>
			<point x="1196" y="1052" type="line"/>
			<point x="1161" y="1374" type="line"/>
			<point x="782" y="1374" type="line"/>
			<point x="763" y="1354" type="line"/>
			<point x="761" y="754" type="line"/>
			<point x="763" y="136" type="line"/>
			<point x="980" y="100" type="line"/>
			<point x="980" y="0" type="line"/>
			<point x="364" y="0" type="line"/>
			<point x="364" y="100" type="line"/>
			<point x="583" y="136" type="line"/>
			<point x="585" y="754" type="line"/>
			<point x="583" y="1354" type="line"/>
			<point x="574" y="1374" type="line"/>
			<point x="185" y="1374" type="line"/>
			<point x="150" y="1049" type="line"/>
		</contour>
	</outline>
	<anchor name="bottom" x="644" y="0"/>
	<anchor name="center" x="644" y="750"/>
	<anchor name="top" x="644" y="1500"/>
	<anchor name="cy_descender" x="951" y="100"/>
</glyph>
<glyph name="U" format="2">
	<unicode hex="0055"/>
	<advance width="1687"/>
	<outline>
		<contour>
			<point x="68" y="1387" type="line"/>
			<point x="68" y="1500" type="line"/>
			<point x="646" y="1500" type="line"/>
			<point x="646" y="1387" type="line"/>
			<point x="459" y="1353" type="line"/>
			<point x="455" y="794" type="line"/>
			<point x="459" y="494" type="line" smooth="yes"/>
			<point x="461" y="312"/>
			<point x="653" y="124"/>
			<point x="862" y="124" type="qcurve" smooth="yes"/>
			<point x="1053" y="124"/>
			<point x="1272" y="315"/>
			<point x="1273" y="507" type="qcurve" smooth="yes"/>
			<point x="1274" y="794" type="line"/>
			<point x="1274" y="1353" type="line"/>
			<point x="1076" y="1387" type="line"/>
			<point x="1076" y="1500" type="line"/>
			<point x="1599" y="1500" type="line"/>
			<point x="1599" y="1387" type="line"/>
			<point x="1411" y="1353" type="line"/>
			<point x="1409" y="794" type="line"/>
			<point x="1411" y="502" type="line" smooth="yes"/>
			<point x="1413" y="267"/>
			<point x="1140" y="-19"/>
			<point x="867" y="-19" type="qcurve" smooth="yes"/>
			<point x="570" y="-19"/>
			<point x="280" y="225"/>
			<point x="282" y="471" type="qcurve" smooth="yes"/>
			<point x="284" y="794" type="line"/>
			<point x="282" y="1353" type="line"/>
		</contour>
	</outline>
	<anchor name="bottom" x="832" y="0"/>
	<anchor name="ogonek" x="1042" y="0"/>
	<anchor name="top" x="832" y="1500"/>
	<anchor name="topright" x="1590" y="1500"/>
</glyph>
<glyph name="V" format="2">
	<unicode hex="0056"/>
	<advance width="1456"/>
	<outline>
		<contour>
			<point x="-40.2280273438" y="1387.0048828125" type="line"/>
			<point x="-40.2280273438" y="1500" type="line"/>
			<point x="510.5843505859" y="1500" type="line"/>
			<point x="510.5843505859" y="1387.0048828125" type="line"/>
			<point x="334.3543701172" y="1353.0048828125" type="line"/>
			<point x="588.3558959961" y="714.0734863281" type="line"/>
			<point x="709" y="366" type="line"/>
			<point x="746" y="252" type="line"/>
			<point x="756" y="252" type="line"/>
			<point x="793" y="366" type="line"/>
			<point x="975.6403808594" y="851.7606811523" type="line"/>
			<point x="1154.7079467773" y="1353.0048828125" type="line"/>
			<point x="971.7376708984" y="1387.0048828125" type="line"/>
			<point x="971.7376708984" y="1500" type="line"/>
			<point x="1490.704284668" y="1500" type="line"/>
			<point x="1490.704284668" y="1387.0048828125" type="line"/>
			<point x="1313.032043457" y="1353.0048828125" type="line"/>
			<point x="1091.3335571289" y="806.1658325195" type="line"/>
			<point x="789.9467163086" y="14.9267578125" type="line"/>
			<point x="669.1447753906" y="14.9267578125" type="line"/>
			<point x="373.5064086914" y="752.3312988281" type="line"/>
			<point x="138.001953125" y="1353.0048828125" type="line"/>
		</contour>
	</outline>
	<anchor name="bottom" x="723" y="0"/>
	<anchor name="top" x="733" y="1500"/>
</glyph>
<glyph name="W" format="2">
	<unicode hex="0057"/>
	<advance width="2039"/>
	<outline>
		<contour>
			<point x="632.7272949219" y="14.9267578125" type="line"/>
			<point x="379.0012817383" y="722.6978149414" type="line"/>
			<point x="133.001953125" y="1353.0048828125" type="line"/>
			<point x="-40.2280273438" y="1387.0048828125" type="line"/>
			<point x="-40.2280273438" y="1500" type="line"/>
			<point x="464.3900756836" y="1500" type="line"/>
			<point x="464.3900756836" y="1387.0048828125" type="line"/>
			<point x="314.2755737305" y="1353.0048828125" type="line"/>
			<point x="546.6143188477" y="743.1853637695" type="line"/>
			<point x="648.5927734375" y="474.9908447266" type="line"/>
			<point x="688.0557250977" y="339.4937133789" type="line"/>
			<point x="700.0557250977" y="339.4937133789" type="line"/>
			<point x="748.8006591797" y="473.8665161133" type="line"/>
			<point x="897.051574707" y="866.1780395508" type="line"/>
			<point x="987.295715332" y="1067.9357910156" type="line"/>
			<point x="880.235534668" y="1356.0048828125" type="line"/>
			<point x="729.0055541992" y="1390.0048828125" type="line"/>
			<point x="729.0055541992" y="1500" type="line"/>
			<point x="1223.6567382812" y="1500" type="line"/>
			<point x="1223.6567382812" y="1390.0048828125" type="line"/>
			<point x="1076.4267578125" y="1356.0048828125" type="line"/>
			<point x="1249.5914306641" y="873.1358642578" type="line"/>
			<point x="1392.9841308594" y="474.5908203125" type="line"/>
			<point x="1426.8471069336" y="361.3209838867" type="line"/>
			<point x="1438.8471069336" y="361.3209838867" type="line"/>
			<point x="1471.5918579102" y="474.2393188477" type="line"/>
			<point x="1614.9193115234" y="862.0453491211" type="line"/>
			<point x="1801.7842407227" y="1353.0048828125" type="line"/>
			<point x="1623.3717041016" y="1387.0048828125" type="line"/>
			<point x="1623.3717041016" y="1500" type="line"/>
			<point x="2143.2550048828" y="1500" type="line"/>
			<point x="2143.2550048828" y="1387.0048828125" type="line"/>
			<point x="1957.1405029297" y="1353.0048828125" type="line"/>
			<point x="1735.2172241211" y="813.8839111328" type="line"/>
			<point x="1452.1489868164" y="14.9267578125" type="line"/>
			<point x="1338.4885253906" y="14.9267578125" type="line"/>
			<point x="1095.7373046875" y="723.4835205078" type="line"/>
			<point x="1040.7984619141" y="914.1806030273" type="line"/>
			<point x="1028.7984619141" y="914.1806030273" type="line"/>
			<point x="973.2504882812" y="721.8289794922" type="line"/>
			<point x="713.2670288086" y="14.9267578125" type="line"/>
		</contour>
	</outline>
	<anchor name="bottom" x="1051" y="0"/>
	<anchor name="top" x="1051" y="1500"/>
</glyph>
<glyph name="X" format="2">
	<unicode hex="0058"/>
	<advance width="1356"/>
	<outline>
		<contour>
			<point x="-43.8388671875" y="0" type="line"/>
			<point x="-43.8388671875" y="99.9951171875" type="line"/>
			<point x="125.3911132812" y="133.9951171875" type="line"/>
			<point x="575" y="786" type="line"/>
			<point x="196.3452758789" y="1353.0048828125" type="line"/>
			<point x="1.5575561523" y="1387.0048828125" type="line"/>
			<point x="1.5575561523" y="1500" type="line"/>
			<point x="560.1157226562" y="1500" type="line"/>
			<point x="560.1157226562" y="1387.0048828125" type="line"/>
			<point x="403.1646118164" y="1353.0048828125" type="line"/>
			<point x="640.6779785156" y="989.4484863281" type="line"/>
			<point x="680.1189575195" y="931.5477905273" type="line"/>
			<point x="692.1189575195" y="931.5477905273" type="line"/>
			<point x="751" y="1043" type="line"/>
			<point x="919.5190429688" y="1353.0048828125" type="line"/>
			<point x="776.991027832" y="1387.0048828125" type="line"/>
			<point x="776.991027832" y="1500" type="line"/>
			<point x="1261.913269043" y="1500" type="line"/>
			<point x="1261.913269043" y="1387.0048828125" type="line"/>
			<point x="1087.241027832" y="1353.0048828125" type="line"/>
			<point x="754.465637207" y="822.5715332031" type="line"/>
			<point x="1210.1757202148" y="133.9951171875" type="line"/>
			<point x="1402.4057006836" y="99.9951171875" type="line"/>
			<point x="1402.4057006836" y="0" type="line"/>
			<point x="843.7143554688" y="0" type="line"/>
			<point x="843.7143554688" y="99.9951171875" type="line"/>
			<point x="996.6654663086" y="133.9951171875" type="line"/>
			<point x="684.2777709961" y="621.4983520508" type="line"/>
			<point x="643.7458496094" y="687.3718261719" type="line"/>
			<point x="631.7458496094" y="687.3718261719" type="line"/>
			<point x="577" y="562" type="line"/>
			<point x="294.1130981445" y="133.9951171875" type="line"/>
			<point x="455.6411132812" y="99.9951171875" type="line"/>
			<point x="455.6411132812" y="0" type="line"/>
		</contour>
	</outline>
	<anchor name="bottom" x="661" y="0"/>
	<anchor name="top" x="673" y="1500"/>
	<anchor name="cy_descender" x="1386" y="100"/>
	<anchor name="center" x="663" y="811"/>
</glyph>
<glyph name="Y" format="2">
	<unicode hex="0059"/>
	<advance width="1258"/>
	<outline>
		<contour>
			<point x="327.6961669922" y="0" type="line"/>
			<point x="327.6961669922" y="99.9951171875" type="line"/>
			<point x="547.4259033203" y="133.9951171875" type="line"/>
			<point x="549.4259033203" y="653.3997192383" type="line"/>
			<point x="375.244140625" y="966.825378418" type="line"/>
			<point x="125.001953125" y="1353.0048828125" type="line"/>
			<point x="-39.07421875" y="1387.0048828125" type="line"/>
			<point x="-39.07421875" y="1500" type="line"/>
			<point x="488.9338989258" y="1500" type="line"/>
			<point x="488.9338989258" y="1387.0048828125" type="line"/>
			<point x="327.2904052734" y="1353.0048828125" type="line"/>
			<point x="583.1876831055" y="900.9676513672" type="line"/>
			<point x="659" y="783" type="line"/>
			<point x="669" y="783" type="line"/>
			<point x="795.1917724609" y="1030.3902587891" type="line"/>
			<point x="970.9261474609" y="1353.0048828125" type="line"/>
			<point x="812.955871582" y="1387.0048828125" type="line"/>
			<point x="812.955871582" y="1500" type="line"/>
			<point x="1287.479675293" y="1500" type="line"/>
			<point x="1287.479675293" y="1387.0048828125" type="line"/>
			<point x="1117.2496948242" y="1353.0048828125" type="line"/>
			<point x="907.4324951172" y="1014.2104492188" type="line"/>
			<point x="723.5270385742" y="656.4621582031" type="line"/>
			<point x="724.8087158203" y="133.9951171875" type="line"/>
			<point x="941.25" y="99.9951171875" type="line"/>
			<point x="941.25" y="0" type="line"/>
		</contour>
	</outline>
	<anchor name="bottom" x="636" y="0"/>
	<anchor name="top" x="640" y="1500"/>
	<anchor name="tonos" x="-100" y="1500"/>
	<anchor name="center" x="636" y="582"/>
</glyph>
<glyph name="Z" format="2">
	<unicode hex="005A"/>
	<advance width="1232"/>
	<outline>
		<contour>
			<point x="99.3601074219" y="0" type="line"/>
			<point x="66.1622924805" y="94.4102172852" type="line"/>
			<point x="893.2299194336" y="1354.3062744141" type="line"/>
			<point x="880.2299194336" y="1377.3062744141" type="line"/>
			<point x="283.0598144531" y="1377.3062744141" type="line"/>
			<point x="227.76953125" y="1080.6937255859" type="line"/>
			<point x="117.0552978516" y="1080.6937255859" type="line"/>
			<point x="117.0552978516" y="1500" type="line"/>
			<point x="1108.4346313477" y="1500" type="line"/>
			<point x="1108.4346313477" y="1405.2926025391" type="line"/>
			<point x="275.3141479492" y="151.975402832" type="line"/>
			<point x="290.3141479492" y="122.975402832" type="line"/>
			<point x="980.9194946289" y="122.975402832" type="line"/>
			<point x="1068.4212036133" y="434.1525268555" type="line"/>
			<point x="1187.6022949219" y="434.1525268555" type="line"/>
			<point x="1137.9240112305" y="0" type="line"/>
		</contour>
	</outline>
	<anchor name="bottom" x="583" y="0"/>
	<anchor name="top" x="583" y="1500"/>
	<anchor name="_liga" x="0" y="0"/>
</glyph>
<glyph name="a" format="2">
	<unicode hex="0061"/>
	<advance width="1034"/>
	<outline>
		<contour>
			<point x="20.1630859375" y="252.5446777344" type="qcurve" smooth="yes"/>
			<point x="20.1630859375" y="374.9509277344"/>
			<point x="396.4645996094" y="596.8100585938"/>
			<point x="859.3067626953" y="582.8961181641" type="qcurve"/>
			<point x="868.3067626953" y="529.6010742188" type="line"/>
			<point x="464.4644775391" y="533.6302490234"/>
			<point x="198.7426757812" y="412.8070068359"/>
			<point x="199.7426757812" y="304.8176269531" type="qcurve" smooth="yes"/>
			<point x="200.7426757812" y="200.6876220703"/>
			<point x="300.2239990234" y="101.9831542969"/>
			<point x="387.2872314453" y="101.9831542969" type="qcurve" smooth="yes"/>
			<point x="474.5346679688" y="101.9831542969"/>
			<point x="636.8887939453" y="210.6594238281"/>
			<point x="657.3309326172" y="257.1978759766" type="qcurve"/>
			<point x="660.3309326172" y="571.0345458984" type="line" smooth="yes"/>
			<point x="661.3309326172" y="769.7630615234"/>
			<point x="550.9921875" y="905.0239257812"/>
			<point x="427.3326416016" y="905.0239257812" type="qcurve" smooth="yes"/>
			<point x="341.2563476562" y="905.0239257812"/>
			<point x="252.0091552734" y="856.7017822266"/>
			<point x="273.6223144531" y="858.3416748047" type="qcurve"/>
			<point x="302.8923339844" y="828.7109375"/>
			<point x="337.8878173828" y="777.7668457031"/>
			<point x="341.0535888672" y="747.0939941406" type="qcurve" smooth="yes"/>
			<point x="348.6198730469" y="715.6088867188"/>
			<point x="289.1693115234" y="655.8208007812"/>
			<point x="240.2901611328" y="650.8208007812" type="qcurve" smooth="yes"/>
			<point x="202.3199462891" y="645.8208007812"/>
			<point x="128.1671142578" y="705.1906738281"/>
			<point x="128.1671142578" y="765.9787597656" type="qcurve" smooth="yes"/>
			<point x="128.1671142578" y="888.4523925781"/>
			<point x="292.7038574219" y="1019.740234375"/>
			<point x="450.9663085938" y="1019.740234375" type="qcurve" smooth="yes"/>
			<point x="611.0532226562" y="1019.740234375"/>
			<point x="809.1353759766" y="870.7982177734"/>
			<point x="813.1353759766" y="705.2449951172" type="qcurve" smooth="yes"/>
			<point x="821.1353759766" y="116.00390625" type="line"/>
			<point x="967.1353759766" y="81.00390625" type="line"/>
			<point x="967.1353759766" y="0" type="line"/>
			<point x="720.3067626953" y="0" type="line"/>
			<point x="675.3067626953" y="51" type="line"/>
			<point x="668.4909667969" y="119.7347412109" type="line"/>
			<point x="652.8218994141" y="78.6643066406"/>
			<point x="385.3155517578" y="-11.5366210938"/>
			<point x="242.5520019531" y="-11.5366210938" type="qcurve" smooth="yes"/>
			<point x="156.0651855469" y="-11.5366210938"/>
			<point x="20.1630859375" y="131.9810791016"/>
		</contour>
	</outline>
	<anchor name="bottom" x="548" y="0"/>
	<anchor name="ogonek" x="878" y="0"/>
	<anchor name="top" x="514" y="1000"/>
</glyph>
<glyph name="d" format="2">
	<unicode hex="0064"/>
	<advance width="1204"/>
	<outline>
		<contour>
			<point x="67.5360107422" y="482.6799316406" type="qcurve" smooth="yes"/>
			<point x="67.5360107422" y="721.2535400391"/>
			<point x="336.8334960938" y="1012.3256835938"/>
			<point x="578.5200195312" y="1012.3256835938" type="qcurve" smooth="yes"/>
			<point x="646.76953125" y="1012.3256835938"/>
			<point x="771.6145019531" y="981.1254882812"/>
			<point x="818.7176513672" y="956.2277832031" type="qcurve"/>
			<point x="814.4075927734" y="1381.99609375" type="line"/>
			<point x="668.4075927734" y="1411.99609375" type="line"/>
			<point x="668.4075927734" y="1500" type="line"/>
			<point x="927.7769775391" y="1529.0244140625" type="line"/>
			<point x="959.7769775391" y="1529.0244140625" type="line"/>
			<point x="989.2379150391" y="1482.0244140625" type="line"/>
			<point x="986.2379150391" y="472.3848876953" type="line"/>
			<point x="995.2379150391" y="116.00390625" type="line"/>
			<point x="1146.2379150391" y="81.00390625" type="line"/>
			<point x="1146.2379150391" y="0" type="line"/>
			<point x="896.3797607422" y="0" type="line"/>
			<point x="844.4825439453" y="60" type="line"/>
			<point x="829.6506347656" y="107.6667480469" type="line"/>
			<point x="781.0764160156" y="55.9431152344"/>
			<point x="616.3397216797" y="-12.2780761719"/>
			<point x="509.2878417969" y="-12.2780761719" type="qcurve" smooth="yes"/>
			<point x="323.8502197266" y="-12.2780761719"/>
			<point x="67.5360107422" y="253.8818359375"/>
		</contour>
		<contour>
			<point x="248.0133056641" y="507.6147460938" type="qcurve" smooth="yes"/>
			<point x="248.0133056641" y="343.6982421875"/>
			<point x="416.3062744141" y="121.1961669922"/>
			<point x="545.2457275391" y="121.1961669922" type="qcurve" smooth="yes"/>
			<point x="637.1843261719" y="121.1961669922"/>
			<point x="800.7976074219" y="199.5633544922"/>
			<point x="858.1119384766" y="261.6799316406" type="qcurve"/>
			<point x="858.8035888672" y="485.5897216797" type="line"/>
			<point x="851.8035888672" y="792.4772949219" type="line"/>
			<point x="812.8288574219" y="840.1694335938"/>
			<point x="674.3175048828" y="912.9172363281"/>
			<point x="582.671875" y="912.9172363281" type="qcurve" smooth="yes"/>
			<point x="430.5266113281" y="912.9172363281"/>
			<point x="248.0133056641" y="671.255859375"/>
		</contour>
	</outline>
	<anchor name="bottom" x="604" y="0"/>
	<anchor name="center" x="876" y="1202"/>
	<anchor name="top" x="604" y="1534"/>
	<anchor name="topright" x="961" y="1000"/>
	<anchor name="liga" x="1207" y="0"/>
</glyph>
<glyph name="e" format="2">
	<unicode hex="0065"/>
	<advance width="1025"/>
	<outline>
		<contour>
			<point x="64.8692016602" y="495.9908447266" type="qcurve" smooth="yes"/>
			<point x="64.8692016602" y="724.6625976562"/>
			<point x="312.1463012695" y="1018.6574707031"/>
			<point x="543.7188110352" y="1018.6574707031" type="qcurve" smooth="yes"/>
			<point x="739.0704956055" y="1018.6574707031"/>
			<point x="954.1411743164" y="799.94921875"/>
			<point x="972.9926147461" y="575.4177246094" type="qcurve"/>
			<point x="973.8532104492" y="500.2368164062" type="line"/>
			<point x="166" y="528" type="line"/>
			<point x="166" y="624" type="line"/>
			<point x="808.9408569336" y="609.4677734375" type="line"/>
			<point x="796.4172973633" y="757.7668457031"/>
			<point x="641.040222168" y="895.0198974609"/>
			<point x="522.9530639648" y="895.0198974609" type="qcurve" smooth="yes"/>
			<point x="401.6896362305" y="895.0198974609"/>
			<point x="243.116027832" y="713.7534179688"/>
			<point x="244.116027832" y="530.3848876953" type="qcurve" smooth="yes"/>
			<point x="245.116027832" y="360.6825561523"/>
			<point x="381.3984985352" y="158.8518066406"/>
			<point x="555.4561157227" y="158.8518066406" type="qcurve" smooth="yes"/>
			<point x="649.9159545898" y="158.8518066406"/>
			<point x="840.8098754883" y="235.4189453125"/>
			<point x="874.5553588867" y="281.9232177734" type="qcurve"/>
			<point x="924.6069946289" y="197.1647949219" type="line"/>
			<point x="922.9950561523" y="112.0860595703"/>
			<point x="721.7061157227" y="-22.5219726562"/>
			<point x="592.3695678711" y="-22.5219726562" type="qcurve" smooth="yes"/>
			<point x="367.0941772461" y="-22.5219726562"/>
			<point x="64.8692016602" y="282.4084472656"/>
		</contour>
	</outline>
	<anchor name="bottom" x="578" y="0"/>
	<anchor name="ogonek" x="744" y="0"/>
	<anchor name="top" x="539" y="1000"/>
</glyph>
<glyph name="f" format="2">
	<unicode hex="0066"/>
	<advance width="591"/>
	<outline>
		<contour>
			<point x="88.0864257812" y="0" type="line"/>
			<point x="88.0864257812" y="81.00390625" type="line"/>
			<point x="240.0864257812" y="116.00390625" type="line"/>
			<point x="242.0864257812" y="570.9758300781" type="line"/>
			<point x="242.0864257812" y="807.5047607422" type="line"/>
			<point x="54.7547607422" y="825.5047607422" type="line"/>
			<point x="54.7547607422" y="915.7357177734" type="line"/>
			<point x="243.0864257812" y="961.7357177734" type="line"/>
			<point x="241.0864257812" y="1280.4165039062" type="line" smooth="yes"/>
			<point x="232.8198242188" y="1380.5439453125"/>
			<point x="371.8343505859" y="1528.2780761719"/>
			<point x="470.5946044922" y="1528.2780761719" type="qcurve" smooth="yes"/>
			<point x="522.6951904297" y="1528.2780761719"/>
			<point x="602.1119384766" y="1492.9152832031"/>
			<point x="625.2655029297" y="1485.2163085938" type="qcurve" smooth="yes"/>
			<point x="640.5838623047" y="1472.9167480469" type="line"/>
			<point x="635.8211669922" y="1359.4635009766" type="line"/>
			<point x="629.5301513672" y="1361.7531738281" type="line" smooth="yes"/>
			<point x="618.8028564453" y="1364.5935058594"/>
			<point x="537.5574951172" y="1385.7536621094"/>
			<point x="508.6182861328" y="1385.7536621094" type="qcurve" smooth="yes"/>
			<point x="451.9698486328" y="1385.7536621094"/>
			<point x="389.8266601562" y="1334.4432373047"/>
			<point x="392.1372070312" y="1277.4473876953" type="qcurve" smooth="yes"/>
			<point x="390.0971679688" y="950.7357177734" type="line"/>
			<point x="659.5025634766" y="950.7357177734" type="line"/>
			<point x="659.5025634766" y="821.5047607422" type="line"/>
			<point x="381.0971679688" y="821.5047607422" type="line"/>
			<point x="384.0971679688" y="570.9758300781" type="line"/>
			<point x="386.0971679688" y="116.00390625" type="line"/>
			<point x="574.0971679688" y="81.00390625" type="line"/>
			<point x="574.0971679688" y="0" type="line"/>
		</contour>
	</outline>
	<anchor name="bottom" x="314" y="0"/>
	<anchor name="top" x="314" y="1536"/>
</glyph>
<glyph name="g" format="2">
	<unicode hex="0067"/>
	<advance width="1035"/>
	<outline>
		<contour>
			<point x="36.3041992188" y="-254.9779052734" type="qcurve" smooth="yes"/>
			<point x="36.3041992188" y="-178.3955078125"/>
			<point x="126" y="-51"/>
			<point x="233" y="2" type="qcurve"/>
			<point x="340" y="-21" type="line"/>
			<point x="240" y="-84"/>
			<point x="159.6274414062" y="-210.1003417969"/>
			<point x="159.6274414062" y="-242.9739990234" type="qcurve" smooth="yes"/>
			<point x="159.6274414062" y="-302.9647216797"/>
			<point x="251.6370849609" y="-380.125"/>
			<point x="478.7764892578" y="-380.125" type="qcurve" smooth="yes"/>
			<point x="680.5209960938" y="-380.125"/>
			<point x="848.2545166016" y="-303.4451904297"/>
			<point x="848.2545166016" y="-237.2991943359" type="qcurve" smooth="yes"/>
			<point x="848.2545166016" y="-207.7170410156"/>
			<point x="703.5447998047" y="-159.9071044922"/>
			<point x="457.9271240234" y="-152.2933349609" type="qcurve" smooth="yes"/>
			<point x="255.5052490234" y="-143.8127441406"/>
			<point x="57.1422119141" y="-21.5617675781"/>
			<point x="57.1422119141" y="101.7583007812" type="qcurve" smooth="yes"/>
			<point x="57.1422119141" y="173.9575195312"/>
			<point x="195.7855224609" y="305.0340576172"/>
			<point x="307.9295654297" y="318.4202880859" type="qcurve"/>
			<point x="320.8547363281" y="282.0736083984" type="line"/>
			<point x="227.8133544922" y="234.2404785156"/>
			<point x="180.1978759766" y="190.3005371094"/>
			<point x="180.1978759766" y="122.6882324219" type="qcurve" smooth="yes"/>
			<point x="180.1978759766" y="77.3979492188"/>
			<point x="293.3041992188" y="44.4490966797"/>
			<point x="519.5241699219" y="39.1749267578" type="qcurve" smooth="yes"/>
			<point x="760.1265869141" y="31.4011230469"/>
			<point x="1034.4884033203" y="-66.2814941406"/>
			<point x="1033.6278076172" y="-203.6513671875" type="qcurve" smooth="yes"/>
			<point x="1032.7672119141" y="-339.2104492188"/>
			<point x="770.1071777344" y="-489.5317382812"/>
			<point x="478.921875" y="-489.5317382812" type="qcurve" smooth="yes"/>
			<point x="234.0069580078" y="-489.5317382812"/>
			<point x="36.3041992188" y="-374.8509521484"/>
		</contour>
		<contour>
			<point x="91.9794921875" y="614.1241455078" type="qcurve" smooth="yes"/>
			<point x="91.9794921875" y="825.6314697266"/>
			<point x="306.6768798828" y="1021.0769042969"/>
			<point x="488.0354003906" y="1021.0769042969" type="qcurve" smooth="yes"/>
			<point x="688.0482177734" y="1021.0769042969"/>
			<point x="908.4730224609" y="834.6314697266"/>
			<point x="909.4730224609" y="619.1241455078" type="qcurve" smooth="yes"/>
			<point x="910.4730224609" y="438.7266845703"/>
			<point x="687.8818359375" y="207.3981933594"/>
			<point x="502.4786376953" y="207.3981933594" type="qcurve" smooth="yes"/>
			<point x="311.4176025391" y="207.3981933594"/>
			<point x="91.9794921875" y="418.6168212891"/>
		</contour>
		<contour>
			<point x="263.8918457031" y="621.4467773438" type="qcurve" smooth="yes"/>
			<point x="263.8918457031" y="493.8821411133"/>
			<point x="397.7242431641" y="296.1016845703"/>
			<point x="506.5760498047" y="296.1016845703" type="qcurve" smooth="yes"/>
			<point x="615.8985595703" y="296.1016845703"/>
			<point x="739.8394775391" y="491.1309204102"/>
			<point x="739.8394775391" y="616.6955566406" type="qcurve" smooth="yes"/>
			<point x="739.8394775391" y="733.2601928711"/>
			<point x="605.904296875" y="901.8898925781"/>
			<point x="499.0524902344" y="901.8898925781" type="qcurve" smooth="yes"/>
			<point x="391.1711425781" y="901.8898925781"/>
			<point x="263.8918457031" y="739.0114135742"/>
		</contour>
		<contour>
			<point x="540" y="925" type="line"/>
			<point x="540" y="1000" type="line"/>
			<point x="1053.3142089844" y="999.7939453125" type="line"/>
			<point x="1053.3142089844" y="845.5739746094" type="line"/>
		</contour>
	</outline>
	<anchor name="bottom" x="524" y="-416"/>
	<anchor name="top" x="484" y="1000"/>
</glyph>
<glyph name="m" format="2">
	<unicode hex="006D"/>
	<advance width="1926"/>
	<outline>
		<contour>
			<point x="77.2239990234" y="0" type="line"/>
			<point x="77.2239990234" y="81.00390625" type="line"/>
			<point x="225.2239990234" y="116.00390625" type="line"/>
			<point x="227.2239990234" y="577" type="line"/>
			<point x="225.2239990234" y="845.3924560547" type="line"/>
			<point x="77.2239990234" y="875.3924560547" type="line"/>
			<point x="77.2239990234" y="969.3963623047" type="line"/>
			<point x="319.3555908203" y="1006.4207763672" type="line"/>
			<point x="354.3555908203" y="979.4207763672" type="line"/>
			<point x="377.3555908203" y="868.3963623047" type="line"/>
			<point x="433.9005126953" y="941.3963623047"/>
			<point x="613.3217773438" y="1014.6793212891"/>
			<point x="738.2813720703" y="1014.6793212891" type="qcurve" smooth="yes"/>
			<point x="888.9293212891" y="1014.6793212891"/>
			<point x="1019.7176513672" y="924.6793212891"/>
			<point x="1038.5158691406" y="870.7760009766" type="qcurve"/>
			<point x="1089.3946533203" y="925.6793212891"/>
			<point x="1285.8244628906" y="1013.6793212891"/>
			<point x="1398.5516357422" y="1013.6793212891" type="qcurve" smooth="yes"/>
			<point x="1555.5637207031" y="1013.6793212891"/>
			<point x="1704.0180664062" y="847.6793212891"/>
			<point x="1704.0180664062" y="716.6793212891" type="qcurve" smooth="yes"/>
			<point x="1703.0180664062" y="682.607421875"/>
			<point x="1705.4810791016" y="544.7468261719"/>
			<point x="1704.8786621094" y="586" type="qcurve" smooth="yes"/>
			<point x="1710.8786621094" y="115.00390625" type="line"/>
			<point x="1860.8786621094" y="81.00390625" type="line"/>
			<point x="1860.8786621094" y="0" type="line"/>
			<point x="1435.0500488281" y="0" type="line"/>
			<point x="1435.0500488281" y="81.00390625" type="line"/>
			<point x="1539.0500488281" y="116.00390625" type="line"/>
			<point x="1542.0500488281" y="535" type="line"/>
			<point x="1543.8658447266" y="728.4545898438" type="line" smooth="yes"/>
			<point x="1544.5921630859" y="804.4545898438"/>
			<point x="1435.5446777344" y="877.4545898438"/>
			<point x="1343.5814208984" y="877.4545898438" type="qcurve" smooth="yes"/>
			<point x="1267.4838867188" y="877.4545898438"/>
			<point x="1092.6907958984" y="791.9465332031"/>
			<point x="1050.25390625" y="743.7728271484" type="qcurve"/>
			<point x="1046.8012695312" y="706.5612792969"/>
			<point x="1047.2987060547" y="557.5661621094"/>
			<point x="1046.4381103516" y="549" type="qcurve" smooth="yes"/>
			<point x="1049.4381103516" y="116.00390625" type="line"/>
			<point x="1152.4381103516" y="81.00390625" type="line"/>
			<point x="1152.4381103516" y="0" type="line"/>
			<point x="777.8883056641" y="0" type="line"/>
			<point x="777.8883056641" y="81.00390625" type="line"/>
			<point x="881.8883056641" y="116.00390625" type="line"/>
			<point x="883.8883056641" y="577" type="line"/>
			<point x="883.8883056641" y="761.4545898438" type="line" smooth="yes"/>
			<point x="883.8883056641" y="820.4545898438"/>
			<point x="780.4776611328" y="876.4545898438"/>
			<point x="695.693359375" y="877.4545898438" type="qcurve" smooth="yes"/>
			<point x="618.5458984375" y="878.4545898438"/>
			<point x="435.4293212891" y="788.3149414062"/>
			<point x="392.3555908203" y="737.9622802734" type="qcurve"/>
			<point x="391.3555908203" y="577" type="line"/>
			<point x="393.3555908203" y="116.00390625" type="line"/>
			<point x="497.3555908203" y="81.00390625" type="line"/>
			<point x="497.3555908203" y="0" type="line"/>
		</contour>
	</outline>
	<anchor name="bottom" x="958" y="0"/>
	<anchor name="top" x="958" y="1000"/>
</glyph>
<glyph name="n" format="2">
	<unicode hex="006E"/>
	<advance width="1272"/>
	<outline>
		<contour>
			<point x="77" y="0" type="line"/>
			<point x="77" y="81" type="line"/>
			<point x="226" y="116" type="line"/>
			<point x="227" y="581" type="line"/>
			<point x="226" y="845" type="line"/>
			<point x="77" y="875" type="line"/>
			<point x="77" y="969" type="line"/>
			<point x="320" y="1006" type="line"/>
			<point x="355" y="979" type="line"/>
			<point x="385" y="833" type="line"/>
			<point x="449" y="908"/>
			<point x="649" y="1015"/>
			<point x="774" y="1015" type="qcurve" smooth="yes"/>
			<point x="923" y="1015"/>
			<point x="1057" y="848"/>
			<point x="1057" y="717" type="qcurve" smooth="yes"/>
			<point x="1057" y="693"/>
			<point x="1051" y="589"/>
			<point x="1051" y="573" type="qcurve" smooth="yes"/>
			<point x="1057" y="115" type="line"/>
			<point x="1207" y="80" type="line"/>
			<point x="1207" y="0" type="line"/>
			<point x="765" y="0" type="line"/>
			<point x="765" y="81" type="line"/>
			<point x="880" y="116" type="line"/>
			<point x="883" y="593" type="line"/>
			<point x="883" y="729" type="line" smooth="yes"/>
			<point x="883" y="805"/>
			<point x="773" y="877"/>
			<point x="683" y="877" type="qcurve" smooth="yes"/>
			<point x="597" y="877"/>
			<point x="426" y="783"/>
			<point x="394" y="737" type="qcurve"/>
			<point x="392" y="599" type="line"/>
			<point x="394" y="116" type="line"/>
			<point x="521" y="81" type="line"/>
			<point x="521" y="0" type="line"/>
		</contour>
	</outline>
	<anchor name="bottom" x="632" y="0"/>
	<anchor name="top" x="632" y="1000"/>
	<anchor name="liga" x="1264" y="0"/>
</glyph>
<glyph name="p" format="2">
	<unicode hex="0070"/>
	<advance width="1188"/>
	<outline>
		<contour>
			<point x="54.1832275391" y="-480" type="line"/>
			<point x="54.1832275391" y="-399.99609375" type="line"/>
			<point x="197.1832275391" y="-364.99609375" type="line"/>
			<point x="199.1832275391" y="385.7341308594" type="line"/>
			<point x="197.1832275391" y="844.7900390625" type="line"/>
			<point x="48.1832275391" y="874.7900390625" type="line"/>
			<point x="48.1832275391" y="968.7939453125" type="line"/>
			<point x="299.4783935547" y="997.818359375" type="line"/>
			<point x="334.4783935547" y="970.818359375" type="line"/>
			<point x="369.4783935547" y="864.7939453125" type="line"/>
			<point x="351.9869384766" y="917.0690917969"/>
			<point x="551.7160644531" y="1014.0769042969"/>
			<point x="716.8818359375" y="1014.0769042969" type="qcurve" smooth="yes"/>
			<point x="912.3555908203" y="1014.0769042969"/>
			<point x="1120.0303955078" y="750.4068603516"/>
			<point x="1120.0303955078" y="535.5627441406" type="qcurve" smooth="yes"/>
			<point x="1120.0303955078" y="294.7814941406"/>
			<point x="888.6186523438" y="-7.0244140625"/>
			<point x="653.7257080078" y="-7.0244140625" type="qcurve" smooth="yes"/>
			<point x="501.0522460938" y="-7.0244140625"/>
			<point x="346.900390625" y="59.53125"/>
			<point x="367.4783935547" y="83" type="qcurve"/>
			<point x="369.4783935547" y="-364.99609375" type="line"/>
			<point x="541.4783935547" y="-399.99609375" type="line"/>
			<point x="541.4783935547" y="-480" type="line"/>
		</contour>
		<contour>
			<point x="366.4783935547" y="256.2791748047" type="line"/>
			<point x="385.7247314453" y="190.9207763672"/>
			<point x="553.1807861328" y="90.6888427734"/>
			<point x="644.6486816406" y="90.6888427734" type="qcurve" smooth="yes"/>
			<point x="788.8234863281" y="90.6888427734"/>
			<point x="956.0438232422" y="386.1242675781"/>
			<point x="956.0438232422" y="487.5627441406" type="qcurve" smooth="yes"/>
			<point x="956.0438232422" y="602.1950073242"/>
			<point x="813.1563720703" y="903.1997070312"/>
			<point x="660.8638916016" y="903.1997070312" type="qcurve" smooth="yes"/>
			<point x="562.9099121094" y="903.1997070312"/>
			<point x="415.3565673828" y="810.7298583984"/>
			<point x="367.4783935547" y="729.2403564453" type="qcurve"/>
			<point x="363.4783935547" y="398.2156982422" type="line"/>
		</contour>
	</outline>
	<anchor name="bottom" x="599" y="0"/>
	<anchor name="top" x="599" y="1000"/>
</glyph>
<glyph name="r" format="2">
	<unicode hex="0072"/>
	<advance width="970"/>
	<outline>
		<contour>
			<point x="79.9995117188" y="0" type="line"/>
			<point x="79.9995117188" y="81.00390625" type="line"/>
			<point x="223.9995117188" y="116.00390625" type="line"/>
			<point x="225.9995117188" y="524.8308105469" type="line"/>
			<point x="224.9995117188" y="845.3924560547" type="line"/>
			<point x="76.9995117188" y="875.3924560547" type="line"/>
			<point x="76.9995117188" y="969.3963623047" type="line"/>
			<point x="338.0642089844" y="1006.4207763672" type="line"/>
			<point x="372.7010498047" y="979.4207763672" type="line"/>
			<point x="395.9248046875" y="833.3963623047" type="line"/>
			<point x="447.5078125" y="908.3963623047"/>
			<point x="709.4161376953" y="1001.2719726562"/>
			<point x="826.6166992188" y="1000.6695556641" type="qcurve" smooth="yes"/>
			<point x="935.7283935547" y="1000.6695556641" type="line"/>
			<point x="935.7283935547" y="638.0887451172" type="line"/>
			<point x="827.253112793" y="638.0887451172" type="line"/>
			<point x="799.253112793" y="773.4276123047" type="line"/>
			<point x="719.7379760742" y="780.4276123047"/>
			<point x="468.5720825195" y="757.3082275391"/>
			<point x="394.828125" y="717.3302001953" type="qcurve"/>
			<point x="391.828125" y="524.8308105469" type="line"/>
			<point x="393.828125" y="116.00390625" type="line"/>
			<point x="568.828125" y="81.00390625" type="line"/>
			<point x="568.828125" y="0" type="line"/>
		</contour>
	</outline>
	<anchor name="bottom" x="432" y="0"/>
	<anchor name="top" x="486" y="1000"/>
</glyph>
<glyph name="s" format="2">
	<unicode hex="0073"/>
	<advance width="862"/>
	<outline>
		<contour>
			<point x="37.6598933237" y="0" type="line"/>
			<point x="37.6598933237" y="299.7896728516" type="line"/>
			<point x="161.510784437" y="299.7896728516" type="line"/>
			<point x="193.510784437" y="151.8572998047" type="line" smooth="yes"/>
			<point x="241.5177396059" y="122.8572998047"/>
			<point x="378.491189313" y="96.3402099609"/>
			<point x="428.3284695864" y="96.3402099609" type="qcurve" smooth="yes"/>
			<point x="531.1811917544" y="96.3402099609"/>
			<point x="667.0136502505" y="193.0491943359"/>
			<point x="666.565041852" y="268.8284912109" type="qcurve" smooth="yes"/>
			<point x="666.1164334536" y="360.9855957031"/>
			<point x="528.9277127505" y="411.7465820312"/>
			<point x="368.3089383364" y="453.8532714844" type="qcurve" smooth="yes"/>
			<point x="188.7625516177" y="505.4653320312"/>
			<point x="73.4788602114" y="650.2723388672"/>
			<point x="74.3691218393" y="757.3990478516" type="qcurve" smooth="yes"/>
			<point x="75.2732938052" y="866.1252441406"/>
			<point x="249.3512356997" y="1021.0671386719"/>
			<point x="423.2279446841" y="1021.0671386719" type="qcurve" smooth="yes"/>
			<point x="505.3718045473" y="1021.0671386719"/>
			<point x="577.4377835512" y="1002.5151367188"/>
			<point x="618.506448102" y="983.5151367188" type="qcurve"/>
			<point x="634.506448102" y="998.7939453125" type="line"/>
			<point x="719.8781522036" y="998.7939453125" type="line"/>
			<point x="719.8781522036" y="763.498046875" type="line"/>
			<point x="592.506448102" y="763.498046875" type="line"/>
			<point x="561.6745389223" y="850.3576660156" type="line" smooth="yes"/>
			<point x="512.5342801333" y="881.4970703125"/>
			<point x="438.5113309145" y="903.7702636719"/>
			<point x="408.3917630434" y="903.7702636719" type="qcurve" smooth="yes"/>
			<point x="306.5417874575" y="903.7702636719"/>
			<point x="203.8875516177" y="825.9128417969"/>
			<point x="203.8875516177" y="781.1994628906" type="qcurve" smooth="yes"/>
			<point x="203.8875516177" y="722.6822509766"/>
			<point x="297.2031062143" y="659.3493652344"/>
			<point x="466.7016413705" y="619.9875488281" type="qcurve" smooth="yes"/>
			<point x="613.0160944955" y="585.9776611328"/>
			<point x="798.3738797427" y="440.7995605469"/>
			<point x="798.3738797427" y="293.5207519531" type="qcurve" smooth="yes"/>
			<point x="798.3738797427" y="159.4812011719"/>
			<point x="613.3473904848" y="-22.5170898438"/>
			<point x="452.8542264223" y="-22.5170898438" type="qcurve" smooth="yes"/>
			<point x="361.9526761294" y="-22.5170898438"/>
			<point x="194.2499173403" y="8.4182128906"/>
			<point x="145.0315974252" y="29.2788085938" type="qcurve"/>
			<point x="120.510784437" y="0" type="line"/>
		</contour>
	</outline>
	<anchor name="bottom" x="468" y="0"/>
	<anchor name="top" x="416" y="1000"/>
</glyph>
<glyph name="t" format="2">
	<unicode hex="0074"/>
	<advance width="660"/>
	<outline>
		<contour>
			<point x="20.9794921875" y="839.0979003906" type="line"/>
			<point x="20.9794921875" y="937.1091308594" type="line"/>
			<point x="156.9794921875" y="967.1091308594"/>
			<point x="249.9041748047" y="1108.1311035156"/>
			<point x="296.8041992188" y="1252.1311035156" type="qcurve"/>
			<point x="324.9953613281" y="1252.1311035156" type="line"/>
			<point x="371.9953613281" y="1201.1311035156" type="line"/>
			<point x="366.9953613281" y="957.1311035156" type="line"/>
			<point x="599.9743652344" y="957.1311035156" type="line"/>
			<point x="599.9743652344" y="837.0979003906" type="line"/>
			<point x="360.9953613281" y="837.0979003906" type="line"/>
			<point x="354.9953613281" y="546.8791503906" type="line"/>
			<point x="364.9953613281" y="234.5386962891" type="line" smooth="yes"/>
			<point x="366.4898681641" y="185.5386962891"/>
			<point x="407.9953613281" y="134.5386962891"/>
			<point x="460.9743652344" y="134.5386962891" type="qcurve" smooth="yes"/>
			<point x="636.9743652344" y="134.5386962891" type="line"/>
			<point x="636.9743652344" y="31" type="line"/>
			<point x="328.4045410156" y="-9.7756347656" type="line"/>
			<point x="262.5310058594" y="-9.7756347656"/>
			<point x="170.8637695312" y="96.3637695312"/>
			<point x="172.8637695312" y="213.2243652344" type="qcurve" smooth="yes"/>
			<point x="186.8637695312" y="546.8791503906" type="line"/>
			<point x="186.8637695312" y="821.0979003906" type="line"/>
		</contour>
	</outline>
	<anchor name="bottom" x="322" y="0"/>
	<anchor name="center" x="312" y="622"/>
	<anchor name="top" x="322" y="1179"/>
	<anchor name="topright" x="540" y="1000"/>
</glyph>
<glyph name="u" format="2">
	<unicode hex="0075"/>
	<advance width="1250"/>
	<outline>
		<contour>
			<point x="58.2648925781" y="874.7900390625" type="line"/>
			<point x="58.2648925781" y="968.7939453125" type="line"/>
			<point x="253.6752929688" y="1000.7939453125" type="line"/>
			<point x="331.6752929688" y="1000.7939453125" type="line"/>
			<point x="374.6752929688" y="951.7939453125" type="line"/>
			<point x="373.6752929688" y="467.9826660156" type="line"/>
			<point x="373.6752929688" y="244.5028076172" type="line" smooth="yes"/>
			<point x="373.6752929688" y="210.0670166016"/>
			<point x="490.9500732422" y="127.2239990234"/>
			<point x="576.2766113281" y="127.2239990234" type="qcurve" smooth="yes"/>
			<point x="655.5187988281" y="126.2239990234"/>
			<point x="806.6020507812" y="197.8328857422"/>
			<point x="855.486328125" y="243.712890625" type="qcurve"/>
			<point x="856.486328125" y="462.7583007812" type="line"/>
			<point x="854.486328125" y="844.7900390625" type="line"/>
			<point x="718.486328125" y="874.7900390625" type="line"/>
			<point x="718.486328125" y="968.7939453125" type="line"/>
			<point x="907.7573242188" y="1000.7939453125" type="line"/>
			<point x="985.7573242188" y="1000.7939453125" type="line"/>
			<point x="1028.7573242188" y="951.7939453125" type="line"/>
			<point x="1026.7573242188" y="462.7583007812" type="line"/>
			<point x="1028.7573242188" y="165.8432617188" type="line"/>
			<point x="1172.7573242188" y="135.8432617188" type="line"/>
			<point x="1172.7573242188" y="26" type="line"/>
			<point x="936.486328125" y="-8" type="line"/>
			<point x="879.486328125" y="39" type="line"/>
			<point x="852.0439453125" y="128" type="line"/>
			<point x="794.9312744141" y="58.9951171875"/>
			<point x="618.8508300781" y="-17.7756347656"/>
			<point x="519.0329589844" y="-17.7756347656" type="qcurve" smooth="yes"/>
			<point x="356.3406982422" y="-17.7756347656"/>
			<point x="201.2648925781" y="144.4442138672"/>
			<point x="201.2648925781" y="280.2243652344" type="qcurve" smooth="yes"/>
			<point x="201.2648925781" y="352.2243652344"/>
			<point x="204.2648925781" y="470.9826660156"/>
			<point x="204.2648925781" y="495.9826660156" type="qcurve" smooth="yes"/>
			<point x="200.2648925781" y="844.7900390625" type="line"/>
		</contour>
	</outline>
	<anchor name="bottom" x="622" y="0"/>
	<anchor name="ogonek" x="1030" y="20"/>
	<anchor name="top" x="622" y="1000"/>
	<anchor name="topright" x="1005" y="1000"/>
	<anchor name="cy_descender" x="1178" y="80"/>
</glyph>
<glyph name="v" format="2">
	<unicode hex="0076"/>
	<advance width="1041"/>
	<outline>
		<contour>
			<point x="-39.7073364258" y="903.7900390625" type="line"/>
			<point x="-39.7073364258" y="998.7939453125" type="line"/>
			<point x="415.7743530273" y="998.7939453125" type="line"/>
			<point x="415.7743530273" y="913.7900390625" type="line"/>
			<point x="288.7743530273" y="877.7900390625" type="line"/>
			<point x="447.852722168" y="445.5390625" type="line"/>
			<point x="483.7044067383" y="274.0614013672" type="line"/>
			<point x="498.8574829102" y="186.8521728516" type="line"/>
			<point x="510.8574829102" y="186.8521728516" type="line"/>
			<point x="526.7565307617" y="272.3402099609" type="line"/>
			<point x="628.1870727539" y="549.8297119141" type="line"/>
			<point x="745.713684082" y="878.7900390625" type="line"/>
			<point x="620.713684082" y="913.7900390625" type="line"/>
			<point x="620.713684082" y="998.7939453125" type="line"/>
			<point x="1050.1686401367" y="998.7939453125" type="line"/>
			<point x="1050.1686401367" y="903.7900390625" type="line"/>
			<point x="906.1686401367" y="868.7900390625" type="line"/>
			<point x="753.3073120117" y="520.6691894531" type="line"/>
			<point x="576.8159790039" y="4.9755859375" type="line"/>
			<point x="429.516784668" y="4.9755859375" type="line"/>
			<point x="277.4786987305" y="443.5610351562" type="line"/>
			<point x="109.2926635742" y="868.7900390625" type="line"/>
		</contour>
	</outline>
	<anchor name="bottom" x="513" y="0"/>
	<anchor name="top" x="513" y="1000"/>
</glyph>
<glyph name="w" format="2">
	<unicode hex="0077"/>
	<advance width="1549"/>
	<outline>
		<contour>
			<point x="416.0267944336" y="4.9755859375" type="line"/>
			<point x="231.7163696289" y="534.8062744141" type="line"/>
			<point x="89.2926635742" y="869.7900390625" type="line"/>
			<point x="-39.7073364258" y="904.7900390625" type="line"/>
			<point x="-39.7073364258" y="998.7939453125" type="line"/>
			<point x="337.4963989258" y="998.7939453125" type="line"/>
			<point x="337.4963989258" y="917.7900390625" type="line"/>
			<point x="251.4963989258" y="872.7900390625" type="line"/>
			<point x="387.430847168" y="474.7916259766" type="line"/>
			<point x="465.9631958008" y="246.6446533203" type="line"/>
			<point x="487.7870483398" y="148.8433837891" type="line"/>
			<point x="499.7870483398" y="148.8433837891" type="line"/>
			<point x="526.2196655273" y="245.0574951172" type="line"/>
			<point x="588.084777832" y="388.7375488281" type="line"/>
			<point x="701.796081543" y="752.7537841797" type="line"/>
			<point x="632.9242553711" y="887.7900390625" type="line"/>
			<point x="563.9242553711" y="917.7900390625" type="line"/>
			<point x="563.9242553711" y="998.7939453125" type="line"/>
			<point x="950.6432495117" y="998.7939453125" type="line"/>
			<point x="950.6432495117" y="917.7900390625" type="line"/>
			<point x="849.6432495117" y="872.7900390625" type="line"/>
			<point x="1019.5796508789" y="378.4967041016" type="line"/>
			<point x="1071.0527954102" y="243.9439697266" type="line"/>
			<point x="1086.1040649414" y="160.205078125" type="line"/>
			<point x="1098.1040649414" y="160.205078125" type="line"/>
			<point x="1108.3283081055" y="243.9439697266" type="line"/>
			<point x="1174.4337768555" y="447.216796875" type="line"/>
			<point x="1323.2278442383" y="873.7900390625" type="line"/>
			<point x="1218.2278442383" y="917.7900390625" type="line"/>
			<point x="1218.2278442383" y="998.7939453125" type="line"/>
			<point x="1557.9389038086" y="998.7939453125" type="line"/>
			<point x="1557.9389038086" y="904.7900390625" type="line"/>
			<point x="1422.9389038086" y="869.7900390625" type="line"/>
			<point x="1271.0087280273" y="447.3402099609" type="line"/>
			<point x="1178.2974243164" y="4.9755859375" type="line"/>
			<point x="1014.2105102539" y="4.9755859375" type="line"/>
			<point x="822.3967895508" y="421.9825439453" type="line"/>
			<point x="757.2955932617" y="618.4506835938" type="line"/>
			<point x="745.2955932617" y="618.4506835938" type="line"/>
			<point x="685.7473754883" y="417.3759765625" type="line"/>
			<point x="549.8901977539" y="4.9755859375" type="line"/>
		</contour>
	</outline>
	<anchor name="bottom" x="787" y="0"/>
	<anchor name="top" x="787" y="1000"/>
</glyph>
<glyph name="x" format="2">
	<unicode hex="0078"/>
	<advance width="864"/>
	<outline>
		<contour>
			<point x="-72.2955932617" y="0" type="line"/>
			<point x="-72.2955932617" y="94.00390625" type="line"/>
			<point x="86.7044067383" y="130.00390625" type="line"/>
			<point x="444" y="480" type="line"/>
			<point x="78.7090454102" y="868.7900390625" type="line"/>
			<point x="-40.2909545898" y="903.7900390625" type="line"/>
			<point x="-40.2909545898" y="998.7939453125" type="line"/>
			<point x="359.3442993164" y="998.7939453125" type="line"/>
			<point x="359.3442993164" y="903.7900390625" type="line"/>
			<point x="289.3442993164" y="866.7900390625" type="line"/>
			<point x="454" y="701" type="line"/>
			<point x="527" y="602" type="line"/>
			<point x="537" y="602" type="line"/>
			<point x="603" y="701" type="line"/>
			<point x="632.587097168" y="873.7900390625" type="line"/>
			<point x="553.587097168" y="903.7900390625" type="line"/>
			<point x="553.587097168" y="998.7939453125" type="line"/>
			<point x="890.7412719727" y="998.7939453125" type="line"/>
			<point x="890.7412719727" y="903.7900390625" type="line"/>
			<point x="741.7412719727" y="868.7900390625" type="line"/>
			<point x="594" y="524" type="line"/>
			<point x="767.9815063477" y="130.00390625" type="line"/>
			<point x="923.9815063477" y="94.00390625" type="line"/>
			<point x="923.9815063477" y="0" type="line"/>
			<point x="424.1770629883" y="0" type="line"/>
			<point x="424.1770629883" y="94.00390625" type="line"/>
			<point x="516.1770629883" y="129.00390625" type="line"/>
			<point x="584" y="305" type="line"/>
			<point x="511" y="402" type="line"/>
			<point x="501" y="402" type="line"/>
			<point x="439" y="305" type="line"/>
			<point x="209.858581543" y="129.00390625" type="line"/>
			<point x="295.858581543" y="94.00390625" type="line"/>
			<point x="295.858581543" y="0" type="line"/>
		</contour>
	</outline>
	<anchor name="bottom" x="522" y="0"/>
	<anchor name="top" x="522" y="1000"/>
	<anchor name="cy_descender" x="1043" y="80"/>
</glyph>
<glyph name="y" format="2">
	<unicode hex="0079"/>
	<advance width="1014"/>
	<outline>
		<contour>
			<point x="-13.889465332" y="901.7900390625" type="line"/>
			<point x="-13.889465332" y="998.7939453125" type="line"/>
			<point x="417.3034057617" y="998.7939453125" type="line"/>
			<point x="417.3034057617" y="907.7900390625" type="line"/>
			<point x="289.3034057617" y="871.7900390625" type="line"/>
			<point x="451.4108276367" y="452.5263671875" type="line"/>
			<point x="458.7463989258" y="346.6165771484" type="line"/>
			<point x="501.4131469727" y="190.5577392578" type="line"/>
			<point x="513.4131469727" y="190.5577392578" type="line"/>
			<point x="561.5850219727" y="344.2111816406" type="line"/>
			<point x="639.2073364258" y="553.5249023438" type="line"/>
			<point x="752.1356811523" y="872.7900390625" type="line"/>
			<point x="627.1356811523" y="907.7900390625" type="line"/>
			<point x="627.1356811523" y="998.7939453125" type="line"/>
			<point x="1016.9323120117" y="998.7939453125" type="line"/>
			<point x="1016.9323120117" y="901.7900390625" type="line"/>
			<point x="872.9323120117" y="866.7900390625" type="line"/>
			<point x="746.1731567383" y="538.515625" type="line"/>
			<point x="468.7174682617" y="-242.0466308594" type="line" smooth="yes"/>
			<point x="425.703918457" y="-381.0096435547"/>
			<point x="278.6188354492" y="-498.2683105469"/>
			<point x="177.8881225586" y="-498.2683105469" type="qcurve"/>
			<point x="20.0072631836" y="-438" type="line"/>
			<point x="20.0072631836" y="-353.3010253906" type="line"/>
			<point x="168.5447387695" y="-353.3010253906" type="line" smooth="yes"/>
			<point x="163.0626831055" y="-353.3010253906"/>
			<point x="239.3469848633" y="-332.5847167969"/>
			<point x="291.7640991211" y="-231.4859619141" type="qcurve" smooth="yes"/>
			<point x="399.3882446289" y="13.2588500977" type="line"/>
			<point x="450.5911254883" y="16.5538330078" type="line"/>
			<point x="264.0951538086" y="514.5725097656" type="line"/>
			<point x="135.110534668" y="866.7900390625" type="line"/>
		</contour>
	</outline>
	<anchor name="bottom" x="782" y="0"/>
	<anchor name="top" x="524" y="1000"/>
</glyph>
